solid OpenSCAD_Model
  facet normal -1 0 0
    outer loop
      vertex 0 0 0
      vertex 0 50 75
      vertex 0 50 0
    endloop
  endfacet
  facet normal -1 -0 0
    outer loop
      vertex 0 50 75
      vertex 0 0 0
      vertex 0 0 75
    endloop
  endfacet
  facet normal -0 0 1
    outer loop
      vertex 59.2352 27.7231 45
      vertex 60 0 45
      vertex 60 35 45
    endloop
  endfacet
  facet normal -0 0 1
    outer loop
      vertex 56.9741 20.7642 45
      vertex 60 0 45
      vertex 59.2352 27.7231 45
    endloop
  endfacet
  facet normal -0 0 1
    outer loop
      vertex 53.3156 14.4275 45
      vertex 60 0 45
      vertex 56.9741 20.7642 45
    endloop
  endfacet
  facet normal -0 0 1
    outer loop
      vertex 48.4196 8.98993 45
      vertex 60 0 45
      vertex 53.3156 14.4275 45
    endloop
  endfacet
  facet normal -0 0 1
    outer loop
      vertex 42.5 4.68911 45
      vertex 60 0 45
      vertex 48.4196 8.98993 45
    endloop
  endfacet
  facet normal -0 0 1
    outer loop
      vertex 35.8156 1.71302 45
      vertex 60 0 45
      vertex 42.5 4.68911 45
    endloop
  endfacet
  facet normal -0 0 1
    outer loop
      vertex 28.6585 0.191733 45
      vertex 60 0 45
      vertex 35.8156 1.71302 45
    endloop
  endfacet
  facet normal 0 0 1
    outer loop
      vertex 25 0 45
      vertex 28.6585 0.191733 45
      vertex 25 0.191733 45
    endloop
  endfacet
  facet normal 0 0 1
    outer loop
      vertex 28.6585 0.191733 45
      vertex 25 0 45
      vertex 60 0 45
    endloop
  endfacet
  facet normal 0 0 1
    outer loop
      vertex 39.1741 33.9993 45
      vertex 60 35 45
      vertex 60 50 45
    endloop
  endfacet
  facet normal 0 -0 1
    outer loop
      vertex 42.2293 29.7942 45
      vertex 60 35 45
      vertex 40.9227 32.0573 45
    endloop
  endfacet
  facet normal 0 -0 1
    outer loop
      vertex 43.0368 27.3089 45
      vertex 59.2352 27.7231 45
      vertex 42.2293 29.7942 45
    endloop
  endfacet
  facet normal 0 0 1
    outer loop
      vertex 59.2352 27.7231 45
      vertex 43.31 24.71 45
      vertex 56.9741 20.7642 45
    endloop
  endfacet
  facet normal 0 0 1
    outer loop
      vertex 56.9741 20.7642 45
      vertex 43.0368 22.1111 45
      vertex 53.3156 14.4275 45
    endloop
  endfacet
  facet normal -0 0 1
    outer loop
      vertex 43.0368 22.1111 45
      vertex 56.9741 20.7642 45
      vertex 43.31 24.71 45
    endloop
  endfacet
  facet normal 0 -0 1
    outer loop
      vertex 43.31 24.71 45
      vertex 59.2352 27.7231 45
      vertex 43.0368 27.3089 45
    endloop
  endfacet
  facet normal 0 0 1
    outer loop
      vertex 60 35 45
      vertex 42.2293 29.7942 45
      vertex 59.2352 27.7231 45
    endloop
  endfacet
  facet normal 0 0 1
    outer loop
      vertex 60 35 45
      vertex 39.1741 33.9993 45
      vertex 40.9227 32.0573 45
    endloop
  endfacet
  facet normal 0 0 1
    outer loop
      vertex 60 50 45
      vertex 37.06 35.5353 45
      vertex 39.1741 33.9993 45
    endloop
  endfacet
  facet normal 0 0 1
    outer loop
      vertex 60 50 45
      vertex 34.6727 36.5982 45
      vertex 37.06 35.5353 45
    endloop
  endfacet
  facet normal -0 0 1
    outer loop
      vertex 25 50 45
      vertex 34.6727 36.5982 45
      vertex 60 50 45
    endloop
  endfacet
  facet normal 0 0 1
    outer loop
      vertex 34.6727 36.5982 45
      vertex 25 50 45
      vertex 32.1166 37.1415 45
    endloop
  endfacet
  facet normal 0 0 1
    outer loop
      vertex 32.1166 37.1415 45
      vertex 25 50 45
      vertex 29.5034 37.1415 45
    endloop
  endfacet
  facet normal 0 0 1
    outer loop
      vertex 29.5034 37.1415 45
      vertex 25 50 45
      vertex 26.9473 36.5982 45
    endloop
  endfacet
  facet normal 0 0 1
    outer loop
      vertex 26.9473 36.5982 45
      vertex 25 50 45
      vertex 25 35.7312 45
    endloop
  endfacet
  facet normal -0 0 1
    outer loop
      vertex 42.2293 19.6258 45
      vertex 53.3156 14.4275 45
      vertex 43.0368 22.1111 45
    endloop
  endfacet
  facet normal -0 0 1
    outer loop
      vertex 40.9227 17.3627 45
      vertex 53.3156 14.4275 45
      vertex 42.2293 19.6258 45
    endloop
  endfacet
  facet normal 0 0 1
    outer loop
      vertex 53.3156 14.4275 45
      vertex 40.9227 17.3627 45
      vertex 48.4196 8.98993 45
    endloop
  endfacet
  facet normal -0 0 1
    outer loop
      vertex 39.1741 15.4207 45
      vertex 48.4196 8.98993 45
      vertex 40.9227 17.3627 45
    endloop
  endfacet
  facet normal 0 0 1
    outer loop
      vertex 48.4196 8.98993 45
      vertex 39.1741 15.4207 45
      vertex 42.5 4.68911 45
    endloop
  endfacet
  facet normal -0 0 1
    outer loop
      vertex 37.06 13.8847 45
      vertex 42.5 4.68911 45
      vertex 39.1741 15.4207 45
    endloop
  endfacet
  facet normal -0 0 1
    outer loop
      vertex 34.6727 12.8218 45
      vertex 42.5 4.68911 45
      vertex 37.06 13.8847 45
    endloop
  endfacet
  facet normal 0 0 1
    outer loop
      vertex 42.5 4.68911 45
      vertex 34.6727 12.8218 45
      vertex 35.8156 1.71302 45
    endloop
  endfacet
  facet normal -0 0 1
    outer loop
      vertex 32.1166 12.2785 45
      vertex 35.8156 1.71302 45
      vertex 34.6727 12.8218 45
    endloop
  endfacet
  facet normal 0 0 1
    outer loop
      vertex 28.6585 0.191733 45
      vertex 32.1166 12.2785 45
      vertex 29.5034 12.2785 45
    endloop
  endfacet
  facet normal 0 0 1
    outer loop
      vertex 32.1166 12.2785 45
      vertex 28.6585 0.191733 45
      vertex 35.8156 1.71302 45
    endloop
  endfacet
  facet normal 0 0 1
    outer loop
      vertex 26.9473 12.8218 45
      vertex 28.6585 0.191733 45
      vertex 29.5034 12.2785 45
    endloop
  endfacet
  facet normal 0 0 1
    outer loop
      vertex 25 0.191733 45
      vertex 26.9473 12.8218 45
      vertex 25 13.6888 45
    endloop
  endfacet
  facet normal 0 0 1
    outer loop
      vertex 26.9473 12.8218 45
      vertex 25 0.191733 45
      vertex 28.6585 0.191733 45
    endloop
  endfacet
  facet normal 1 -0 0
    outer loop
      vertex 60 35 45
      vertex 60 50 0
      vertex 60 50 45
    endloop
  endfacet
  facet normal 1 0 0
    outer loop
      vertex 60 0 0
      vertex 60 35 45
      vertex 60 0 45
    endloop
  endfacet
  facet normal 1 0 0
    outer loop
      vertex 60 35 45
      vertex 60 0 0
      vertex 60 50 0
    endloop
  endfacet
  facet normal 0 1 0
    outer loop
      vertex 60 50 45
      vertex 60 50 0
      vertex 25 50 45
    endloop
  endfacet
  facet normal 0 1 -0
    outer loop
      vertex 25 50 45
      vertex 0 50 75
      vertex 25 50 75
    endloop
  endfacet
  facet normal 0 1 0
    outer loop
      vertex 0 50 0
      vertex 25 50 45
      vertex 60 50 0
    endloop
  endfacet
  facet normal 0 1 0
    outer loop
      vertex 25 50 45
      vertex 0 50 0
      vertex 0 50 75
    endloop
  endfacet
  facet normal 0 0 -1
    outer loop
      vertex 60 0 0
      vertex 43.31 24.71 0
      vertex 60 50 0
    endloop
  endfacet
  facet normal 0 0 -1
    outer loop
      vertex 60 0 0
      vertex 43.0368 22.1111 0
      vertex 43.31 24.71 0
    endloop
  endfacet
  facet normal 0 0 -1
    outer loop
      vertex 60 0 0
      vertex 42.2293 19.6258 0
      vertex 43.0368 22.1111 0
    endloop
  endfacet
  facet normal 0 0 -1
    outer loop
      vertex 60 0 0
      vertex 40.9227 17.3627 0
      vertex 42.2293 19.6258 0
    endloop
  endfacet
  facet normal 0 0 -1
    outer loop
      vertex 60 0 0
      vertex 39.1741 15.4207 0
      vertex 40.9227 17.3627 0
    endloop
  endfacet
  facet normal 0 0 -1
    outer loop
      vertex 60 0 0
      vertex 37.06 13.8847 0
      vertex 39.1741 15.4207 0
    endloop
  endfacet
  facet normal 0 0 -1
    outer loop
      vertex 60 0 0
      vertex 34.6727 12.8218 0
      vertex 37.06 13.8847 0
    endloop
  endfacet
  facet normal 0 0 -1
    outer loop
      vertex 60 0 0
      vertex 32.1166 12.2785 0
      vertex 34.6727 12.8218 0
    endloop
  endfacet
  facet normal 0 0 -1
    outer loop
      vertex 60 0 0
      vertex 29.5034 12.2785 0
      vertex 32.1166 12.2785 0
    endloop
  endfacet
  facet normal 0 0 -1
    outer loop
      vertex 0 0 0
      vertex 29.5034 12.2785 0
      vertex 60 0 0
    endloop
  endfacet
  facet normal -0 0 -1
    outer loop
      vertex 18.5832 22.1111 0
      vertex 0 0 0
      vertex 18.31 24.71 0
    endloop
  endfacet
  facet normal -0 0 -1
    outer loop
      vertex 19.3907 19.6258 0
      vertex 0 0 0
      vertex 18.5832 22.1111 0
    endloop
  endfacet
  facet normal -0 0 -1
    outer loop
      vertex 20.6973 17.3627 0
      vertex 0 0 0
      vertex 19.3907 19.6258 0
    endloop
  endfacet
  facet normal -0 0 -1
    outer loop
      vertex 22.4459 15.4207 0
      vertex 0 0 0
      vertex 20.6973 17.3627 0
    endloop
  endfacet
  facet normal -0 0 -1
    outer loop
      vertex 24.56 13.8847 0
      vertex 0 0 0
      vertex 22.4459 15.4207 0
    endloop
  endfacet
  facet normal -0 0 -1
    outer loop
      vertex 26.9473 12.8218 0
      vertex 0 0 0
      vertex 24.56 13.8847 0
    endloop
  endfacet
  facet normal -0 0 -1
    outer loop
      vertex 29.5034 12.2785 0
      vertex 0 0 0
      vertex 26.9473 12.8218 0
    endloop
  endfacet
  facet normal 0 0 -1
    outer loop
      vertex 43.0368 27.3089 0
      vertex 60 50 0
      vertex 43.31 24.71 0
    endloop
  endfacet
  facet normal 0 0 -1
    outer loop
      vertex 42.2293 29.7942 0
      vertex 60 50 0
      vertex 43.0368 27.3089 0
    endloop
  endfacet
  facet normal 0 0 -1
    outer loop
      vertex 40.9227 32.0573 0
      vertex 60 50 0
      vertex 42.2293 29.7942 0
    endloop
  endfacet
  facet normal 0 0 -1
    outer loop
      vertex 39.1741 33.9993 0
      vertex 60 50 0
      vertex 40.9227 32.0573 0
    endloop
  endfacet
  facet normal 0 0 -1
    outer loop
      vertex 37.06 35.5353 0
      vertex 60 50 0
      vertex 39.1741 33.9993 0
    endloop
  endfacet
  facet normal 0 0 -1
    outer loop
      vertex 34.6727 36.5982 0
      vertex 60 50 0
      vertex 37.06 35.5353 0
    endloop
  endfacet
  facet normal 0 0 -1
    outer loop
      vertex 32.1166 37.1415 0
      vertex 60 50 0
      vertex 34.6727 36.5982 0
    endloop
  endfacet
  facet normal 0 0 -1
    outer loop
      vertex 29.5034 37.1415 0
      vertex 60 50 0
      vertex 32.1166 37.1415 0
    endloop
  endfacet
  facet normal 0 0 -1
    outer loop
      vertex 0 50 0
      vertex 29.5034 37.1415 0
      vertex 26.9473 36.5982 0
    endloop
  endfacet
  facet normal 0 0 -1
    outer loop
      vertex 0 50 0
      vertex 18.31 24.71 0
      vertex 0 0 0
    endloop
  endfacet
  facet normal 0 0 -1
    outer loop
      vertex 18.31 24.71 0
      vertex 0 50 0
      vertex 18.5832 27.3089 0
    endloop
  endfacet
  facet normal 0 0 -1
    outer loop
      vertex 18.5832 27.3089 0
      vertex 0 50 0
      vertex 19.3907 29.7942 0
    endloop
  endfacet
  facet normal 0 0 -1
    outer loop
      vertex 29.5034 37.1415 0
      vertex 0 50 0
      vertex 60 50 0
    endloop
  endfacet
  facet normal 0 0 -1
    outer loop
      vertex 24.56 35.5353 0
      vertex 0 50 0
      vertex 26.9473 36.5982 0
    endloop
  endfacet
  facet normal 0 0 -1
    outer loop
      vertex 22.4459 33.9993 0
      vertex 0 50 0
      vertex 24.56 35.5353 0
    endloop
  endfacet
  facet normal 0 0 -1
    outer loop
      vertex 20.6973 32.0573 0
      vertex 0 50 0
      vertex 22.4459 33.9993 0
    endloop
  endfacet
  facet normal 0 0 -1
    outer loop
      vertex 19.3907 29.7942 0
      vertex 0 50 0
      vertex 20.6973 32.0573 0
    endloop
  endfacet
  facet normal 0 -1 0
    outer loop
      vertex 0 0 75
      vertex 25 0 45
      vertex 25 0 75
    endloop
  endfacet
  facet normal 0 -1 0
    outer loop
      vertex 0 0 0
      vertex 25 0 45
      vertex 0 0 75
    endloop
  endfacet
  facet normal 0 -1 0
    outer loop
      vertex 60 0 0
      vertex 25 0 45
      vertex 0 0 0
    endloop
  endfacet
  facet normal 0 -1 0
    outer loop
      vertex 25 0 45
      vertex 60 0 0
      vertex 60 0 45
    endloop
  endfacet
  facet normal -0 0 1
    outer loop
      vertex 0 50 75
      vertex 25 0.191733 75
      vertex 25 50 75
    endloop
  endfacet
  facet normal 0 0 1
    outer loop
      vertex 0 0 75
      vertex 25 0.191733 75
      vertex 0 50 75
    endloop
  endfacet
  facet normal 0 0 1
    outer loop
      vertex 25 0.191733 75
      vertex 0 0 75
      vertex 25 0 75
    endloop
  endfacet
  facet normal 1 -0 0
    outer loop
      vertex 25 0 75
      vertex 25 0.191733 45
      vertex 25 0.191733 75
    endloop
  endfacet
  facet normal 1 0 0
    outer loop
      vertex 25 0.191733 45
      vertex 25 0 75
      vertex 25 0 45
    endloop
  endfacet
  facet normal 1 0 0
    outer loop
      vertex 25 50 75
      vertex 25 35.7312 46
      vertex 25 50 45
    endloop
  endfacet
  facet normal 1 -0 0
    outer loop
      vertex 25 0.191733 75
      vertex 25 35.7312 46
      vertex 25 50 75
    endloop
  endfacet
  facet normal 1 0 0
    outer loop
      vertex 25 35.7312 46
      vertex 25 0.191733 75
      vertex 25 13.6888 46
    endloop
  endfacet
  facet normal 1 0 0
    outer loop
      vertex 25 0.191733 45
      vertex 25 13.6888 46
      vertex 25 0.191733 75
    endloop
  endfacet
  facet normal 1 0 0
    outer loop
      vertex 25 13.6888 46
      vertex 25 0.191733 45
      vertex 25 13.6888 45
    endloop
  endfacet
  facet normal 1 0 0
    outer loop
      vertex 25 50 45
      vertex 25 35.7312 46
      vertex 25 35.7312 45
    endloop
  endfacet
  facet normal -0.866026 -0.5 0
    outer loop
      vertex 42.2293 29.7942 0
      vertex 40.9227 32.0573 45
      vertex 40.9227 32.0573 0
    endloop
  endfacet
  facet normal -0.866026 -0.5 0
    outer loop
      vertex 40.9227 32.0573 45
      vertex 42.2293 29.7942 0
      vertex 42.2293 29.7942 45
    endloop
  endfacet
  facet normal 0 -1 0
    outer loop
      vertex 29.5034 37.1415 0
      vertex 32.1166 37.1415 45
      vertex 29.5034 37.1415 45
    endloop
  endfacet
  facet normal 0 -1 -0
    outer loop
      vertex 32.1166 37.1415 45
      vertex 29.5034 37.1415 0
      vertex 32.1166 37.1415 0
    endloop
  endfacet
  facet normal 0.951059 -0.309009 0
    outer loop
      vertex 18.5832 27.3089 46
      vertex 19.3907 29.7942 0
      vertex 19.3907 29.7942 46
    endloop
  endfacet
  facet normal 0.951059 -0.309009 0
    outer loop
      vertex 19.3907 29.7942 0
      vertex 18.5832 27.3089 46
      vertex 18.5832 27.3089 0
    endloop
  endfacet
  facet normal -0.743142 -0.669134 0
    outer loop
      vertex 40.9227 32.0573 0
      vertex 39.1741 33.9993 45
      vertex 39.1741 33.9993 0
    endloop
  endfacet
  facet normal -0.743142 -0.669134 0
    outer loop
      vertex 39.1741 33.9993 45
      vertex 40.9227 32.0573 0
      vertex 40.9227 32.0573 45
    endloop
  endfacet
  facet normal -0.207906 -0.978149 0
    outer loop
      vertex 32.1166 37.1415 0
      vertex 34.6727 36.5982 45
      vertex 32.1166 37.1415 45
    endloop
  endfacet
  facet normal -0.207906 -0.978149 -0
    outer loop
      vertex 34.6727 36.5982 45
      vertex 32.1166 37.1415 0
      vertex 34.6727 36.5982 0
    endloop
  endfacet
  facet normal 0.406736 -0.913546 0
    outer loop
      vertex 24.56 35.5353 46
      vertex 25 35.7312 45
      vertex 25 35.7312 46
    endloop
  endfacet
  facet normal 0.406736 -0.913546 0
    outer loop
      vertex 24.56 35.5353 0
      vertex 25 35.7312 45
      vertex 24.56 35.5353 46
    endloop
  endfacet
  facet normal 0.406739 -0.913544 -4.0971e-08
    outer loop
      vertex 24.56 35.5353 0
      vertex 26.9473 36.5982 45
      vertex 25 35.7312 45
    endloop
  endfacet
  facet normal 0.406738 -0.913545 0
    outer loop
      vertex 26.9473 36.5982 45
      vertex 24.56 35.5353 0
      vertex 26.9473 36.5982 0
    endloop
  endfacet
  facet normal 0.866026 -0.5 0
    outer loop
      vertex 19.3907 29.7942 46
      vertex 20.6973 32.0573 0
      vertex 20.6973 32.0573 46
    endloop
  endfacet
  facet normal 0.866026 -0.5 0
    outer loop
      vertex 20.6973 32.0573 0
      vertex 19.3907 29.7942 46
      vertex 19.3907 29.7942 0
    endloop
  endfacet
  facet normal 0.587789 -0.809014 0
    outer loop
      vertex 22.4459 33.9993 0
      vertex 24.56 35.5353 46
      vertex 22.4459 33.9993 46
    endloop
  endfacet
  facet normal 0.587789 -0.809014 0
    outer loop
      vertex 24.56 35.5353 46
      vertex 22.4459 33.9993 0
      vertex 24.56 35.5353 0
    endloop
  endfacet
  facet normal -0.99452 0.104545 0
    outer loop
      vertex 43.0368 22.1111 0
      vertex 43.31 24.71 45
      vertex 43.31 24.71 0
    endloop
  endfacet
  facet normal -0.99452 0.104545 0
    outer loop
      vertex 43.31 24.71 45
      vertex 43.0368 22.1111 0
      vertex 43.0368 22.1111 45
    endloop
  endfacet
  facet normal -0.587789 -0.809014 0
    outer loop
      vertex 37.06 35.5353 0
      vertex 39.1741 33.9993 45
      vertex 37.06 35.5353 45
    endloop
  endfacet
  facet normal -0.587789 -0.809014 -0
    outer loop
      vertex 39.1741 33.9993 45
      vertex 37.06 35.5353 0
      vertex 39.1741 33.9993 0
    endloop
  endfacet
  facet normal -0.406738 -0.913545 0
    outer loop
      vertex 34.6727 36.5982 0
      vertex 37.06 35.5353 45
      vertex 34.6727 36.5982 45
    endloop
  endfacet
  facet normal -0.406738 -0.913545 -0
    outer loop
      vertex 37.06 35.5353 45
      vertex 34.6727 36.5982 0
      vertex 37.06 35.5353 0
    endloop
  endfacet
  facet normal 0.99452 -0.104545 0
    outer loop
      vertex 18.31 24.71 46
      vertex 18.5832 27.3089 0
      vertex 18.5832 27.3089 46
    endloop
  endfacet
  facet normal 0.99452 -0.104545 0
    outer loop
      vertex 18.5832 27.3089 0
      vertex 18.31 24.71 46
      vertex 18.31 24.71 0
    endloop
  endfacet
  facet normal 0.743142 -0.669134 0
    outer loop
      vertex 20.6973 32.0573 46
      vertex 22.4459 33.9993 0
      vertex 22.4459 33.9993 46
    endloop
  endfacet
  facet normal 0.743142 -0.669134 0
    outer loop
      vertex 22.4459 33.9993 0
      vertex 20.6973 32.0573 46
      vertex 20.6973 32.0573 0
    endloop
  endfacet
  facet normal 0.207906 -0.978149 0
    outer loop
      vertex 26.9473 36.5982 0
      vertex 29.5034 37.1415 45
      vertex 26.9473 36.5982 45
    endloop
  endfacet
  facet normal 0.207906 -0.978149 0
    outer loop
      vertex 29.5034 37.1415 45
      vertex 26.9473 36.5982 0
      vertex 29.5034 37.1415 0
    endloop
  endfacet
  facet normal -0.99452 -0.104545 0
    outer loop
      vertex 43.31 24.71 0
      vertex 43.0368 27.3089 45
      vertex 43.0368 27.3089 0
    endloop
  endfacet
  facet normal -0.99452 -0.104545 0
    outer loop
      vertex 43.0368 27.3089 45
      vertex 43.31 24.71 0
      vertex 43.31 24.71 45
    endloop
  endfacet
  facet normal -0.951059 0.309009 0
    outer loop
      vertex 42.2293 19.6258 0
      vertex 43.0368 22.1111 45
      vertex 43.0368 22.1111 0
    endloop
  endfacet
  facet normal -0.951059 0.309009 0
    outer loop
      vertex 43.0368 22.1111 45
      vertex 42.2293 19.6258 0
      vertex 42.2293 19.6258 45
    endloop
  endfacet
  facet normal 0.587789 0.809014 -0
    outer loop
      vertex 24.56 13.8847 0
      vertex 22.4459 15.4207 46
      vertex 24.56 13.8847 46
    endloop
  endfacet
  facet normal 0.587789 0.809014 0
    outer loop
      vertex 22.4459 15.4207 46
      vertex 24.56 13.8847 0
      vertex 22.4459 15.4207 0
    endloop
  endfacet
  facet normal 0.866026 0.5 0
    outer loop
      vertex 20.6973 17.3627 46
      vertex 19.3907 19.6258 0
      vertex 19.3907 19.6258 46
    endloop
  endfacet
  facet normal 0.866026 0.5 0
    outer loop
      vertex 19.3907 19.6258 0
      vertex 20.6973 17.3627 46
      vertex 20.6973 17.3627 0
    endloop
  endfacet
  facet normal -0.587789 0.809014 0
    outer loop
      vertex 39.1741 15.4207 0
      vertex 37.06 13.8847 45
      vertex 39.1741 15.4207 45
    endloop
  endfacet
  facet normal -0.587789 0.809014 0
    outer loop
      vertex 37.06 13.8847 45
      vertex 39.1741 15.4207 0
      vertex 37.06 13.8847 0
    endloop
  endfacet
  facet normal -0.951059 -0.309009 0
    outer loop
      vertex 43.0368 27.3089 0
      vertex 42.2293 29.7942 45
      vertex 42.2293 29.7942 0
    endloop
  endfacet
  facet normal -0.951059 -0.309009 0
    outer loop
      vertex 42.2293 29.7942 45
      vertex 43.0368 27.3089 0
      vertex 43.0368 27.3089 45
    endloop
  endfacet
  facet normal 0 0 -1
    outer loop
      vertex 22.4459 15.4207 46
      vertex 25 13.6888 46
      vertex 24.56 13.8847 46
    endloop
  endfacet
  facet normal 0 0 -1
    outer loop
      vertex 20.6973 17.3627 46
      vertex 25 13.6888 46
      vertex 22.4459 15.4207 46
    endloop
  endfacet
  facet normal 0 0 -1
    outer loop
      vertex 25 13.6888 46
      vertex 20.6973 17.3627 46
      vertex 25 35.7312 46
    endloop
  endfacet
  facet normal 0 0 -1
    outer loop
      vertex 25 35.7312 46
      vertex 22.4459 33.9993 46
      vertex 24.56 35.5353 46
    endloop
  endfacet
  facet normal 0 0 -1
    outer loop
      vertex 20.6973 32.0573 46
      vertex 25 35.7312 46
      vertex 20.6973 17.3627 46
    endloop
  endfacet
  facet normal 0 0 -1
    outer loop
      vertex 25 35.7312 46
      vertex 20.6973 32.0573 46
      vertex 22.4459 33.9993 46
    endloop
  endfacet
  facet normal 0 0 -1
    outer loop
      vertex 19.3907 19.6258 46
      vertex 20.6973 32.0573 46
      vertex 20.6973 17.3627 46
    endloop
  endfacet
  facet normal 0 0 -1
    outer loop
      vertex 19.3907 19.6258 46
      vertex 19.3907 29.7942 46
      vertex 20.6973 32.0573 46
    endloop
  endfacet
  facet normal 0 0 -1
    outer loop
      vertex 18.5832 22.1111 46
      vertex 19.3907 29.7942 46
      vertex 19.3907 19.6258 46
    endloop
  endfacet
  facet normal 0 0 -1
    outer loop
      vertex 18.5832 22.1111 46
      vertex 18.5832 27.3089 46
      vertex 19.3907 29.7942 46
    endloop
  endfacet
  facet normal 0 -0 -1
    outer loop
      vertex 18.5832 27.3089 46
      vertex 18.5832 22.1111 46
      vertex 18.31 24.71 46
    endloop
  endfacet
  facet normal -0.866026 0.5 0
    outer loop
      vertex 40.9227 17.3627 0
      vertex 42.2293 19.6258 45
      vertex 42.2293 19.6258 0
    endloop
  endfacet
  facet normal -0.866026 0.5 0
    outer loop
      vertex 42.2293 19.6258 45
      vertex 40.9227 17.3627 0
      vertex 40.9227 17.3627 45
    endloop
  endfacet
  facet normal 0 1 -0
    outer loop
      vertex 32.1166 12.2785 0
      vertex 29.5034 12.2785 45
      vertex 32.1166 12.2785 45
    endloop
  endfacet
  facet normal 0 1 0
    outer loop
      vertex 29.5034 12.2785 45
      vertex 32.1166 12.2785 0
      vertex 29.5034 12.2785 0
    endloop
  endfacet
  facet normal 0.99452 0.104545 0
    outer loop
      vertex 18.5832 22.1111 46
      vertex 18.31 24.71 0
      vertex 18.31 24.71 46
    endloop
  endfacet
  facet normal 0.99452 0.104545 0
    outer loop
      vertex 18.31 24.71 0
      vertex 18.5832 22.1111 46
      vertex 18.5832 22.1111 0
    endloop
  endfacet
  facet normal 0.743142 0.669134 0
    outer loop
      vertex 22.4459 15.4207 46
      vertex 20.6973 17.3627 0
      vertex 20.6973 17.3627 46
    endloop
  endfacet
  facet normal 0.743142 0.669134 0
    outer loop
      vertex 20.6973 17.3627 0
      vertex 22.4459 15.4207 46
      vertex 22.4459 15.4207 0
    endloop
  endfacet
  facet normal -0.207906 0.978149 0
    outer loop
      vertex 34.6727 12.8218 0
      vertex 32.1166 12.2785 45
      vertex 34.6727 12.8218 45
    endloop
  endfacet
  facet normal -0.207906 0.978149 0
    outer loop
      vertex 32.1166 12.2785 45
      vertex 34.6727 12.8218 0
      vertex 32.1166 12.2785 0
    endloop
  endfacet
  facet normal -0.406738 0.913545 0
    outer loop
      vertex 37.06 13.8847 0
      vertex 34.6727 12.8218 45
      vertex 37.06 13.8847 45
    endloop
  endfacet
  facet normal -0.406738 0.913545 0
    outer loop
      vertex 34.6727 12.8218 45
      vertex 37.06 13.8847 0
      vertex 34.6727 12.8218 0
    endloop
  endfacet
  facet normal 0.406739 0.913544 0
    outer loop
      vertex 26.9473 12.8218 45
      vertex 26.9473 12.8218 0
      vertex 25 13.6888 45
    endloop
  endfacet
  facet normal 0.406736 0.913546 -0
    outer loop
      vertex 25 13.6888 45
      vertex 24.56 13.8847 46
      vertex 25 13.6888 46
    endloop
  endfacet
  facet normal 0.406738 0.913545 -3.34197e-08
    outer loop
      vertex 24.56 13.8847 0
      vertex 25 13.6888 45
      vertex 26.9473 12.8218 0
    endloop
  endfacet
  facet normal 0.406736 0.913546 0
    outer loop
      vertex 25 13.6888 45
      vertex 24.56 13.8847 0
      vertex 24.56 13.8847 46
    endloop
  endfacet
  facet normal 0.951059 0.309009 0
    outer loop
      vertex 19.3907 19.6258 46
      vertex 18.5832 22.1111 0
      vertex 18.5832 22.1111 46
    endloop
  endfacet
  facet normal 0.951059 0.309009 0
    outer loop
      vertex 18.5832 22.1111 0
      vertex 19.3907 19.6258 46
      vertex 19.3907 19.6258 0
    endloop
  endfacet
  facet normal -0.743142 0.669134 0
    outer loop
      vertex 39.1741 15.4207 0
      vertex 40.9227 17.3627 45
      vertex 40.9227 17.3627 0
    endloop
  endfacet
  facet normal -0.743142 0.669134 0
    outer loop
      vertex 40.9227 17.3627 45
      vertex 39.1741 15.4207 0
      vertex 39.1741 15.4207 45
    endloop
  endfacet
  facet normal 0.207906 0.978149 -0
    outer loop
      vertex 29.5034 12.2785 0
      vertex 26.9473 12.8218 45
      vertex 29.5034 12.2785 45
    endloop
  endfacet
  facet normal 0.207906 0.978149 0
    outer loop
      vertex 26.9473 12.8218 45
      vertex 29.5034 12.2785 0
      vertex 26.9473 12.8218 0
    endloop
  endfacet
endsolid OpenSCAD_Model
